<svg
  width="237"
  height="150"
  viewBox="0 0 237 150"
  fill="none"
  xmlns="http://www.w3.org/2000/svg"
>
  <g opacity="0.15">
    <path
      d="M172.837 36.3723C172.837 50.7014 150.459 92.9589 137.628 116.01C136.758 117.574 135.486 118.877 133.943 119.784C132.401 120.691 130.645 121.169 128.857 121.169C127.068 121.169 125.312 120.691 123.77 119.784C122.228 118.877 120.956 117.574 120.085 116.01C107.254 92.9589 84.8761 50.7014 84.8761 36.3723C84.8761 16.2844 104.567 0 128.857 0C153.146 0 172.837 16.2844 172.837 36.3723Z"
      fill="#1D71B8"
    />
    <path
      d="M129.063 59.9316C142.291 59.9316 153.015 49.1987 153.015 35.959C153.015 22.7192 142.291 11.9863 129.063 11.9863C115.835 11.9863 105.111 22.7192 105.111 35.959C105.111 49.1987 115.835 59.9316 129.063 59.9316Z"
      fill="white"
    />
    <path
      d="M29.1137 57.6498C37.0368 57.6498 43.4598 51.2212 43.4598 43.2911C43.4598 35.3611 37.0368 28.9325 29.1137 28.9325C21.1905 28.9325 14.7675 35.3611 14.7675 43.2911C14.7675 51.2212 21.1905 57.6498 29.1137 57.6498Z"
      fill="#FF6584"
    />
    <path
      d="M128.857 149.353C148.036 149.353 163.583 148.151 163.583 146.669C163.583 145.188 148.036 143.986 128.857 143.986C109.677 143.986 94.1297 145.188 94.1297 146.669C94.1297 148.151 109.677 149.353 128.857 149.353Z"
      fill="#1D71B8"
    />
    <path
      opacity="0.4"
      d="M26.1926 56.0601C26.9228 51.5568 23.8672 47.3137 19.3678 46.5829C14.8684 45.8521 10.6291 48.9104 9.8989 53.4137C9.16875 57.917 12.2243 62.16 16.7237 62.8908C21.2231 63.6216 25.4625 60.5634 26.1926 56.0601Z"
      fill="#1D71B8"
    />
    <path
      d="M211.143 97.3497C146.147 72.9637 66.8743 96.738 21.1057 145.369C20.8455 145.642 20.5854 145.919 20.3335 146.196H19.6356C19.8751 145.919 20.1228 145.642 20.3665 145.369C67.0849 93.0387 145.304 72.1825 211.143 97.3497Z"
      fill="#3F3D56"
    />
    <path
      d="M228.904 105.438C223.159 102.372 217.227 99.6702 211.143 97.3496C217.243 99.6319 223.177 102.335 228.904 105.438Z"
      fill="#3F3D56"
    />
    <path
      opacity="0.4"
      d="M193.332 81.1082C198.331 81.1082 202.384 77.0519 202.384 72.0481C202.384 67.0444 198.331 62.988 193.332 62.988C188.332 62.988 184.28 67.0444 184.28 72.0481C184.28 77.0519 188.332 81.1082 193.332 81.1082Z"
      fill="#1D71B8"
    />
    <path
      d="M194.34 141.737C195.039 144.325 197.435 145.928 197.435 145.928C197.435 145.928 198.697 143.334 197.998 140.746C197.298 138.158 194.902 136.555 194.902 136.555C194.902 136.555 193.64 139.149 194.34 141.737Z"
      fill="#3F3D56"
    />
    <path
      d="M195.368 141.18C197.287 143.051 197.522 145.926 197.522 145.926C197.522 145.926 194.644 145.768 192.724 143.898C190.805 142.028 190.57 139.153 190.57 139.153C190.57 139.153 193.448 139.31 195.368 141.18Z"
      fill="#1D71B8"
    />
    <path
      d="M1.60173 105.751V109.743L1.4032 109.958V105.709C1.46938 105.722 1.53557 105.738 1.60173 105.751Z"
      fill="#3F3D56"
    />
    <path
      d="M14.3125 145.367C14.2546 145.462 14.1927 145.557 14.1308 145.653H1.40326V105.949L1.60149 105.75L3.2905 107.672V104.862H8.65901V113.781L14.0812 119.944L14.1308 120.002C14.1968 120.208 14.2588 120.415 14.3207 120.622C14.3211 120.625 14.3226 120.628 14.3248 120.63C15.138 123.235 15.8053 125.883 16.3236 128.562C17.5046 134.881 17.3271 140.676 14.3125 145.367Z"
      fill="#CCCCCC"
    />
    <path
      d="M5.87212 127.697H2.45508V130.547H5.87212V127.697Z"
      fill="#3F3D56"
    />
    <path
      d="M5.87212 132.827H2.45508V135.677H5.87212V132.827Z"
      fill="#3F3D56"
    />
    <path
      d="M111.13 122.282L109.422 119.432L125.368 105.752C137.157 100.072 151.368 101.711 166.373 105.752V109.742L151.566 125.702L134.48 129.122L111.13 122.282Z"
      fill="#3F3D56"
    />
    <path
      d="M173.431 113.78C176.263 110.627 176.656 107.63 173.431 104.862H168.063V107.674L166.373 105.752L152.705 119.432L150.426 121.712L147.579 133.112L152.705 145.652H178.902V120.002L173.431 113.78Z"
      fill="#CCCCCC"
    />
    <path
      d="M109.422 119.432H152.705V145.652H109.422C104.186 139.982 106.906 129.647 109.422 119.432Z"
      fill="#F2F2F2"
    />
    <path
      d="M146.725 127.697H137.613V135.677H146.725V127.697Z"
      fill="#3F3D56"
    />
    <path
      d="M133.911 127.412H125.938V145.652H133.911V127.412Z"
      fill="#CCCCCC"
    />
    <path
      d="M116.826 130.262V127.412H113.409V130.262H116.541H116.826Z"
      fill="#3F3D56"
    />
    <path
      d="M116.541 132.542H113.409V135.392H116.826V132.542H116.541Z"
      fill="#3F3D56"
    />
    <path
      d="M122.521 127.412H119.104V130.262H122.521V127.412Z"
      fill="#3F3D56"
    />
    <path
      d="M122.521 132.542H119.104V135.392H122.521V132.542Z"
      fill="#3F3D56"
    />
    <path
      d="M164.949 130.547V127.697H161.532V130.547H164.664H164.949Z"
      fill="#3F3D56"
    />
    <path
      d="M164.664 132.827H161.532V135.677H164.949V132.827H164.664Z"
      fill="#3F3D56"
    />
    <path
      d="M170.644 127.697H167.227V130.547H170.644V127.697Z"
      fill="#3F3D56"
    />
    <path
      d="M170.644 132.827H167.227V135.677H170.644V132.827Z"
      fill="#3F3D56"
    />
    <path
      d="M34.0628 74.402L31.2154 72.1217L47.1615 57.8716H87.5963V70.4118L61.3992 88.0821L34.0628 74.402Z"
      fill="#3F3D56"
    />
    <path
      d="M94.9684 65.8651V58.1562H89.5999V60.0443L87.5962 57.8715L74.4975 72.1215L69.3722 75.5418L61.4247 133.656L73.4101 145.652H101.264C105.532 124.164 108.917 102.09 101.264 72.6915L94.9684 65.8651Z"
      fill="#CCCCCC"
    />
    <path
      d="M31.2151 72.1218H74.4976V145.652H31.2151C26.4788 117.086 24.1656 90.5953 31.2151 72.1218Z"
      fill="#F2F2F2"
    />
    <path
      d="M55.9887 127.697H48.0156V145.652H55.9887V127.697Z"
      fill="#CCCCCC"
    />
    <path
      d="M39.473 132.827V129.977H36.0562V132.827H39.1885H39.473Z"
      fill="#3F3D56"
    />
    <path
      d="M39.1885 135.107H36.0562V137.957H39.473V135.107H39.1885Z"
      fill="#3F3D56"
    />
    <path d="M45.168 129.977H41.751V132.827H45.168V129.977Z" fill="#3F3D56" />
    <path
      d="M62.5381 135.107H59.4058V137.957H62.8227V135.107H62.5381Z"
      fill="#3F3D56"
    />
    <path
      d="M68.5177 129.977H65.1007V132.827H68.5177V129.977Z"
      fill="#3F3D56"
    />
    <path
      d="M68.5177 135.107H65.1007V137.957H68.5177V135.107Z"
      fill="#3F3D56"
    />
    <path
      d="M86.7419 75.8268V72.9769H83.325V75.8268H86.4573H86.7419Z"
      fill="#3F3D56"
    />
    <path
      d="M86.4573 78.1071H83.325V80.9569H86.7419V78.1071H86.4573Z"
      fill="#3F3D56"
    />
    <path d="M92.437 72.9767H89.02V75.8267H92.437V72.9767Z" fill="#3F3D56" />
    <path d="M92.437 78.1067H89.02V80.9567H92.437V78.1067Z" fill="#3F3D56" />
    <path
      d="M86.7419 91.7872V88.9369H83.325V91.7872H86.4573H86.7419Z"
      fill="#3F3D56"
    />
    <path
      d="M86.4573 94.0671H83.325V96.917H86.7419V94.0671H86.4573Z"
      fill="#3F3D56"
    />
    <path d="M92.437 88.9368H89.02V91.7868H92.437V88.9368Z" fill="#3F3D56" />
    <path d="M92.437 94.0668H89.02V96.9168H92.437V94.0668Z" fill="#3F3D56" />
    <path
      d="M86.7419 107.747V104.897H83.325V107.747H86.4573H86.7419Z"
      fill="#3F3D56"
    />
    <path
      d="M86.4573 110.027H83.325V112.877H86.7419V110.027H86.4573Z"
      fill="#3F3D56"
    />
    <path d="M92.437 104.897H89.02V107.747H92.437V104.897Z" fill="#3F3D56" />
    <path d="M92.437 110.027H89.02V112.877H92.437V110.027Z" fill="#3F3D56" />
    <path
      d="M86.7419 123.707V120.857H83.325V123.707H86.4573H86.7419Z"
      fill="#3F3D56"
    />
    <path
      d="M86.4573 125.987H83.325V128.837H86.7419V125.987H86.4573Z"
      fill="#3F3D56"
    />
    <path d="M92.437 120.857H89.02V123.707H92.437V120.857Z" fill="#3F3D56" />
    <path d="M92.437 125.987H89.02V128.837H92.437V125.987Z" fill="#3F3D56" />
    <path
      d="M36.0559 75.8268H69.0873V82.6668C58.4997 79.7423 47.4589 79.9521 36.0559 82.6668V75.8268Z"
      fill="#3F3D56"
    />
    <path
      d="M36.0559 89.5067C46.3654 92.5468 57.3758 92.5468 69.0873 89.5067V96.3467H36.0559V89.5067Z"
      fill="#3F3D56"
    />
    <path
      d="M36.0559 103.187H69.0873V110.027C57.8303 106.429 46.8082 106.26 36.0559 110.027V103.187Z"
      fill="#3F3D56"
    />
    <path
      d="M36.0559 116.867C46.8285 121.022 57.8488 120.849 69.0873 116.867V123.707H36.0559V116.867Z"
      fill="#3F3D56"
    />
    <path
      d="M213.583 104.984H236.792V116.176L234.719 116.825L227.822 118.98L217.002 116.471L206.195 113.965L200.488 112.641L197.639 111.586C200.009 108.331 204.32 105.771 213.583 104.984Z"
      fill="#3F3D56"
    />
    <path
      d="M236.792 111.586V145.653H197.639C197.626 145.631 197.618 145.612 197.606 145.591V145.589C197.596 145.566 197.585 145.543 197.573 145.52C196.961 144.289 196.414 143.061 195.929 141.836C191.82 131.471 192.266 121.379 197.639 111.586H236.792Z"
      fill="#F2F2F2"
    />
    <path
      d="M222.412 127.697H214.439V145.652H222.412V127.697Z"
      fill="#CCCCCC"
    />
    <path
      d="M205.897 132.827V129.977H202.48V132.827H205.612H205.897Z"
      fill="#3F3D56"
    />
    <path
      d="M205.612 135.107H202.48V137.957H205.897V135.107H205.612Z"
      fill="#3F3D56"
    />
    <path
      d="M211.592 129.977H208.175V132.827H211.592V129.977Z"
      fill="#3F3D56"
    />
    <path
      d="M211.592 135.107H208.175V137.957H211.592V135.107Z"
      fill="#3F3D56"
    />
    <path
      d="M229.246 132.827V129.977H225.83V132.827H228.962H229.246Z"
      fill="#3F3D56"
    />
    <path
      d="M228.962 135.107H225.83V137.957H229.246V135.107H228.962Z"
      fill="#3F3D56"
    />
    <path
      d="M234.942 129.977H231.525V132.827H234.942V129.977Z"
      fill="#3F3D56"
    />
    <path
      d="M234.942 135.107H231.525V137.957H234.942V135.107Z"
      fill="#3F3D56"
    />
    <path
      d="M206.196 91.7574H211.105C215.946 91.7574 220.589 93.6823 224.012 97.1084C227.435 100.535 229.358 105.182 229.358 110.027H206.196V91.7574Z"
      fill="#3F3D56"
    />
    <path
      d="M57.53 42.1588H62.4384C67.2795 42.1588 71.9224 44.0836 75.3456 47.5098C78.7688 50.936 80.6919 55.5829 80.6919 60.4283H57.53V42.1588Z"
      fill="#3F3D56"
    />
    <path
      d="M135.993 88.0375H140.901C145.742 88.0375 150.385 89.9623 153.808 93.3885C157.232 96.8147 159.155 101.462 159.155 106.307H135.993V88.0375Z"
      fill="#3F3D56"
    />
    <path
      d="M229.358 116.867H206.196V123.707H229.358V116.867Z"
      fill="#3F3D56"
    />
    <path
      d="M236.792 145.369H1.40326V146.196H236.792V145.369Z"
      fill="#3F3D56"
    />
    <path
      d="M23.1143 112.715H22.2871V145.367H23.1143V112.715Z"
      fill="#3F3D56"
    />
    <path
      d="M30.7353 116.876C30.7879 128.294 22.7619 137.587 22.7619 137.587C22.7619 137.587 12.4836 128.171 14.5981 116.951C16.7247 105.667 23.3525 96.2877 22.5715 96.2397C22.5715 96.2397 30.6828 105.458 30.7353 116.876Z"
      fill="#1D71B8"
    />
    <path d="M105.707 112.715H104.88V145.367H105.707V112.715Z" fill="#3F3D56" />
    <path
      d="M113.328 116.876C114.072 128.27 105.354 137.587 105.354 137.587C105.354 137.587 97.2431 128.368 97.1905 116.951C97.1379 105.533 105.164 96.2397 105.164 96.2397C104.381 99.3696 112.725 107.657 113.328 116.876Z"
      fill="#1D71B8"
    />
    <path
      d="M52.046 59.6377L87.9216 57.8811L102.971 70.4539L100.311 72.8582L76.4789 72.3213L52.046 59.6377Z"
      fill="#3F3D56"
    />
    <path
      d="M16.2492 117.985L14.3165 119.733L14.0811 119.944L13.5897 120.391L1.4032 120.118V105.709C1.00676 105.623 0.610311 105.54 0.213867 105.461L1.20085 105.412L1.4032 105.581L3.29044 107.156L8.65895 111.645L14.6552 116.654L16.2492 117.985Z"
      fill="#3F3D56"
    />
    <path
      d="M130.509 107.17L166.384 105.413L181.434 117.986L178.773 120.39L154.942 119.853L130.509 107.17Z"
      fill="#3F3D56"
    />
  </g>
</svg>
